<svg width="167" height="28" viewBox="0 0 167 28" fill="none" xmlns="http://www.w3.org/2000/svg">
<path d="M22.3646 24.904C22.3728 24.9144 22.3877 24.9161 22.3979 24.9077C24.0424 23.563 25.3611 21.8521 26.2522 19.907C27.1467 17.9546 27.5861 15.819 27.5364 13.6661C27.4868 11.5133 26.9493 9.40132 25.9658 7.49449C24.986 5.59478 23.5898 3.94969 21.8852 2.68617C21.8746 2.67833 21.8598 2.68071 21.852 2.69148L21.3942 3.33216C21.3865 3.34293 21.3889 3.35801 21.3994 3.36585C23.0013 4.55344 24.3133 6.09953 25.234 7.88481C26.1586 9.67725 26.6638 11.6625 26.7105 13.6861C26.7572 15.7098 26.3441 17.7174 25.5033 19.5526C24.6658 21.3805 23.4266 22.9885 21.8813 24.2524C21.8711 24.2607 21.8695 24.2759 21.8777 24.2863L22.3646 24.904Z" fill="#F5F5F5"/>
<path d="M20.762 1.96415C20.7687 1.95268 20.7649 1.9379 20.7536 1.93115C19.0559 0.916178 17.1636 0.283371 15.2043 0.0755625C13.2372 -0.133082 11.2488 0.0915897 9.37437 0.734286C7.49995 1.37698 5.78357 2.42262 4.34201 3.80003C2.90621 5.17195 1.77659 6.84094 1.02936 8.69424C1.02439 8.70656 1.03022 8.72063 1.04235 8.72567L1.7634 9.02445C1.77556 9.02949 1.78936 9.02355 1.79436 9.01123C2.49674 7.26967 3.5584 5.7013 4.90768 4.41203C6.26277 3.11726 7.87618 2.13436 9.6381 1.53023C11.4 0.926093 13.2692 0.714903 15.1183 0.911026C16.9595 1.10632 18.7379 1.7009 20.3334 2.65455C20.3447 2.66129 20.3592 2.6575 20.3659 2.64603L20.762 1.96415Z" fill="#F5F5F5"/>
<path d="M0.484213 10.4182C0.471555 10.4147 0.458571 10.4224 0.455233 10.4353C0.14454 11.6332 -0.00842228 12.8677 0.000357525 14.1064C0.000452998 14.1197 0.0111715 14.1304 0.0242696 14.1302L0.803018 14.1229C0.816112 14.1227 0.826621 14.1118 0.82653 14.0986C0.818407 12.9351 0.962071 11.7757 1.25376 10.6506C1.2571 10.6377 1.24956 10.6245 1.2369 10.6211L0.484213 10.4182Z" fill="#F5F5F5"/>
<path d="M0.145776 15.8645C0.132803 15.8663 0.1237 15.8784 0.125462 15.8916C0.375854 17.7639 0.996485 19.5652 1.95005 21.187C2.90764 22.8156 4.18107 24.2292 5.69284 25.3418C7.20461 26.4544 8.92323 27.2428 10.7443 27.6591C12.5576 28.0736 14.4347 28.1105 16.2626 27.7677C16.2755 27.7653 16.284 27.7527 16.2816 27.7397L16.1393 26.9612C16.1369 26.9482 16.1245 26.9395 16.1116 26.9419C14.3939 27.2639 12.6298 27.2291 10.9258 26.8395C9.21405 26.4482 7.59854 25.7071 6.17747 24.6613C4.7564 23.6154 3.55939 22.2867 2.65923 20.7557C1.76315 19.2317 1.17983 17.539 0.944327 15.7796C0.942561 15.7664 0.930623 15.7571 0.917639 15.7589L0.145776 15.8645Z" fill="#F5F5F5"/>
<path d="M17.6453 27.4075C17.649 27.4203 17.6622 27.4276 17.6748 27.4238C18.8768 27.0619 20.0247 26.5349 21.0865 25.8574C21.0976 25.8503 21.101 25.8354 21.094 25.8241L20.679 25.1543C20.6721 25.143 20.6574 25.1396 20.6463 25.1467C19.6489 25.783 18.5708 26.278 17.4418 26.618C17.4293 26.6217 17.4221 26.6351 17.4258 26.6479L17.6453 27.4075Z" fill="#F5F5F5"/>
<path d="M23.6598 20.968C19.8723 26.5189 12.3744 27.8981 6.91296 24.0486C1.45145 20.1991 0.0944159 12.5786 3.88196 7.02771C7.66951 1.47684 15.1673 0.0976289 20.6288 3.94715C26.0904 7.79666 27.4474 15.4172 23.6598 20.968ZM5.67306 8.29017C2.57153 12.8356 3.68275 19.0759 8.15506 22.2282C12.6274 25.3805 18.7672 24.2511 21.8687 19.7056C24.9703 15.1601 23.8591 8.91983 19.3867 5.76756C14.9144 2.61526 8.7746 3.74465 5.67306 8.29017Z" fill="#F5F5F5"/>
<path d="M39.4639 6.20224H41.5962V22.1911H39.4639V6.20224ZM47.8675 6.20224H50.6663L59.329 19.3456H59.3735V6.20224H61.5058V22.1911H58.7959L50.0443 9.04771H49.9999V22.1911H47.8675V6.20224ZM71.0547 8.23472H65.9903V6.20224H78.2514V8.23472H73.187V22.1911H71.0547V8.23472ZM84.5869 6.20224V16.0033C84.5869 16.5001 84.6535 17.0196 84.7868 17.5615C84.92 18.0885 85.1422 18.5778 85.4531 19.0294C85.7641 19.4811 86.1713 19.85 86.6748 20.136C87.1783 20.4221 87.8002 20.5651 88.5406 20.5651C89.2811 20.5651 89.903 20.4221 90.4065 20.136C90.91 19.85 91.3172 19.4811 91.6282 19.0294C91.9391 18.5778 92.1612 18.0885 92.2945 17.5615C92.4278 17.0196 92.4944 16.5001 92.4944 16.0033V6.20224H94.6268V16.3421C94.6268 17.2755 94.4713 18.1261 94.1603 18.894C93.8494 19.6467 93.4199 20.3016 92.872 20.8587C92.3241 21.4157 91.68 21.8448 90.9396 22.1459C90.1992 22.447 89.3995 22.5976 88.5406 22.5976C87.6818 22.5976 86.8821 22.447 86.1417 22.1459C85.4013 21.8448 84.7572 21.4157 84.2093 20.8587C83.6614 20.3016 83.2319 19.6467 82.9209 18.894C82.61 18.1261 82.4545 17.2755 82.4545 16.3421V6.20224H84.5869ZM100.604 6.20224H102.736V22.1911H100.604V6.20224ZM112.295 8.23472H107.23V6.20224H119.492V8.23472H114.427V22.1911H112.295V8.23472ZM123.983 6.20224H126.116V22.1911H123.983V6.20224ZM139.605 22.5976C138.406 22.5976 137.303 22.3868 136.296 21.9653C135.289 21.5286 134.423 20.934 133.697 20.1812C132.986 19.4284 132.423 18.5401 132.009 17.5164C131.609 16.4926 131.409 15.386 131.409 14.1967C131.409 13.0073 131.609 11.9007 132.009 10.8769C132.423 9.85318 132.986 8.96491 133.697 8.21214C134.423 7.45937 135.289 6.87221 136.296 6.45066C137.303 6.01405 138.406 5.79575 139.605 5.79575C140.805 5.79575 141.908 6.01405 142.915 6.45066C143.922 6.87221 144.781 7.45937 145.492 8.21214C146.217 8.96491 146.78 9.85318 147.18 10.8769C147.594 11.9007 147.802 13.0073 147.802 14.1967C147.802 15.386 147.594 16.4926 147.18 17.5164C146.78 18.5401 146.217 19.4284 145.492 20.1812C144.781 20.934 143.922 21.5286 142.915 21.9653C141.908 22.3868 140.805 22.5976 139.605 22.5976ZM139.605 20.5651C140.509 20.5651 141.323 20.3995 142.049 20.0683C142.774 19.722 143.396 19.2628 143.915 18.6907C144.433 18.1186 144.833 17.4486 145.114 16.6808C145.395 15.8979 145.536 15.0699 145.536 14.1967C145.536 13.3235 145.395 12.5029 145.114 11.7351C144.833 10.9522 144.433 10.2747 143.915 9.70262C143.396 9.13052 142.774 8.67886 142.049 8.34764C141.323 8.00136 140.509 7.82823 139.605 7.82823C138.702 7.82823 137.888 8.00136 137.162 8.34764C136.436 8.67886 135.815 9.13052 135.296 9.70262C134.778 10.2747 134.378 10.9522 134.097 11.7351C133.815 12.5029 133.675 13.3235 133.675 14.1967C133.675 15.0699 133.815 15.8979 134.097 16.6808C134.378 17.4486 134.778 18.1186 135.296 18.6907C135.815 19.2628 136.436 19.722 137.162 20.0683C137.888 20.3995 138.702 20.5651 139.605 20.5651ZM153.089 6.20224H155.888L164.55 19.3456H164.595V6.20224H166.727V22.1911H164.017L155.266 9.04771H155.221V22.1911H153.089V6.20224Z" fill="#F5F5F5"/>
</svg>
