<svg width="498" height="497" viewBox="0 0 498 497" fill="none" xmlns="http://www.w3.org/2000/svg">
<g filter="url(#filter0_n_442_6)">
<path d="M91.1428 228.914V204.543C91.143 180.11 91.1428 161.183 128.047 148.347L249.737 94.8833L497.969 203.947V373.937L249.737 496.54L0.00012207 390.142V342.802L242.318 445.554C246.9 447.57 252.13 447.497 256.654 445.355L444.272 356.548C450.318 353.686 454.174 347.588 454.174 340.889V244.75C454.174 237.898 450.143 231.689 443.89 228.914L256.65 145.814C252.246 143.86 247.229 143.835 242.807 145.745L165.964 178.929C142.169 188.8 134.937 197.628 134.937 204.543V247L91.1428 228.914Z" fill="#FFF8EE"/>
</g>
<g filter="url(#filter1_n_442_6)">
<path d="M406.826 267.626V291.997C406.826 316.43 406.826 335.357 369.922 348.193L248.232 401.656L0 292.592V122.603L248.232 -0.00012207L497.969 106.398V153.737L255.651 50.9859C251.068 48.9698 245.839 49.0425 241.314 51.1843L53.6962 139.992C47.6505 142.853 43.7943 148.952 43.7943 155.651V251.79C43.7944 258.642 47.826 264.85 54.0788 267.626L241.319 350.725C245.722 352.68 250.739 352.705 255.162 350.795L332.005 317.611C355.799 307.74 363.031 298.911 363.032 291.997V249.539L406.826 267.626Z" fill="#FFF8EE"/>
</g>
<path d="M246.801 193.677C248.18 193.011 249.788 193.015 251.164 193.685L316.447 225.498C318.166 226.336 319.257 228.081 319.257 229.993V256.588C319.257 258.485 318.182 260.219 316.483 261.064L251.2 293.54C249.804 294.235 248.163 294.238 246.764 293.549L180.79 261.059C179.081 260.218 177.999 258.479 177.999 256.574V230.007C177.999 228.087 179.098 226.337 180.826 225.504L246.801 193.677Z" fill="#FFF8EE"/>
<g filter="url(#filter2_n_442_6)">
<path d="M91.1428 228.914V204.543C91.143 180.11 91.1428 161.183 128.047 148.347L249.737 94.8833L497.969 203.947V373.937L249.737 496.54L0.00012207 390.142V342.802L242.318 445.554C246.9 447.57 252.13 447.497 256.654 445.355L444.272 356.548C450.318 353.686 454.174 347.588 454.174 340.889V244.75C454.174 237.898 450.143 231.689 443.89 228.914L256.65 145.814C252.246 143.86 247.229 143.835 242.807 145.745L165.964 178.929C142.169 188.8 134.937 197.628 134.937 204.543V247L91.1428 228.914Z" fill="#FFF8EE"/>
</g>
<g filter="url(#filter3_n_442_6)">
<path d="M406.826 267.626V291.997C406.826 316.43 406.826 335.357 369.922 348.193L248.232 401.656L0 292.592V122.603L248.232 -0.00012207L497.969 106.398V153.737L255.651 50.9859C251.068 48.9698 245.839 49.0425 241.314 51.1843L53.6962 139.992C47.6505 142.853 43.7943 148.952 43.7943 155.651V251.79C43.7944 258.642 47.826 264.85 54.0788 267.626L241.319 350.725C245.722 352.68 250.739 352.705 255.162 350.795L332.005 317.611C355.799 307.74 363.031 298.911 363.032 291.997V249.539L406.826 267.626Z" fill="#FFF8EE"/>
</g>
<path d="M246.801 193.676C248.18 193.011 249.788 193.014 251.164 193.685L316.447 225.498C318.166 226.336 319.257 228.081 319.257 229.993V256.588C319.257 258.485 318.182 260.219 316.483 261.064L251.2 293.54C249.804 294.235 248.163 294.238 246.764 293.549L180.79 261.059C179.081 260.218 177.999 258.478 177.999 256.574V230.007C177.999 228.087 179.098 226.337 180.826 225.503L246.801 193.676Z" fill="#FFF8EE"/>
<path d="M248.404 259.645C248.759 259.809 248.986 260.163 248.986 260.554V293.267C248.986 294.007 248.211 294.491 247.546 294.165L178.188 260.187C177.845 260.02 177.628 259.671 177.628 259.289V228.656C177.628 227.927 178.383 227.443 179.046 227.748L248.404 259.645Z" fill="#525252"/>
<path opacity="0.76" d="M248.628 259.913V294.871L319.486 259.73C319.486 259.73 319.486 239.414 319.486 226.913C304.628 231.914 248.628 259.913 248.628 259.913Z" fill="#525252"/>
<defs>
<filter id="filter0_n_442_6" x="0.00012207" y="94.8833" width="497.969" height="401.656" filterUnits="userSpaceOnUse" color-interpolation-filters="sRGB">
<feFlood flood-opacity="0" result="BackgroundImageFix"/>
<feBlend mode="normal" in="SourceGraphic" in2="BackgroundImageFix" result="shape"/>
<feTurbulence type="fractalNoise" baseFrequency="2 2" stitchTiles="stitch" numOctaves="3" result="noise" seed="5171" />
<feColorMatrix in="noise" type="luminanceToAlpha" result="alphaNoise" />
<feComponentTransfer in="alphaNoise" result="coloredNoise1">
<feFuncA type="discrete" tableValues="0 0 0 0 0 0 0 0 0 0 0 0 1 1 1 1 1 1 1 1 1 1 1 1 1 1 1 1 1 1 1 1 1 1 1 1 1 0 0 0 0 0 0 0 0 0 0 0 0 0 0 0 0 0 0 0 0 0 0 0 0 0 0 0 0 0 0 0 0 0 0 0 0 0 0 0 0 0 0 0 0 0 0 0 0 0 0 0 0 0 0 0 0 0 0 0 0 0 0 0 "/>
</feComponentTransfer>
<feComposite operator="in" in2="shape" in="coloredNoise1" result="noise1Clipped" />
<feFlood flood-color="rgba(255, 255, 255, 0.16)" result="color1Flood" />
<feComposite operator="in" in2="noise1Clipped" in="color1Flood" result="color1" />
<feMerge result="effect1_noise_442_6">
<feMergeNode in="shape" />
<feMergeNode in="color1" />
</feMerge>
</filter>
<filter id="filter1_n_442_6" x="0" y="0" width="497.969" height="401.656" filterUnits="userSpaceOnUse" color-interpolation-filters="sRGB">
<feFlood flood-opacity="0" result="BackgroundImageFix"/>
<feBlend mode="normal" in="SourceGraphic" in2="BackgroundImageFix" result="shape"/>
<feTurbulence type="fractalNoise" baseFrequency="2 2" stitchTiles="stitch" numOctaves="3" result="noise" seed="5171" />
<feColorMatrix in="noise" type="luminanceToAlpha" result="alphaNoise" />
<feComponentTransfer in="alphaNoise" result="coloredNoise1">
<feFuncA type="discrete" tableValues="0 0 0 0 0 0 0 0 0 0 0 0 1 1 1 1 1 1 1 1 1 1 1 1 1 1 1 1 1 1 1 1 1 1 1 1 1 0 0 0 0 0 0 0 0 0 0 0 0 0 0 0 0 0 0 0 0 0 0 0 0 0 0 0 0 0 0 0 0 0 0 0 0 0 0 0 0 0 0 0 0 0 0 0 0 0 0 0 0 0 0 0 0 0 0 0 0 0 0 0 "/>
</feComponentTransfer>
<feComposite operator="in" in2="shape" in="coloredNoise1" result="noise1Clipped" />
<feFlood flood-color="rgba(255, 255, 255, 0.16)" result="color1Flood" />
<feComposite operator="in" in2="noise1Clipped" in="color1Flood" result="color1" />
<feMerge result="effect1_noise_442_6">
<feMergeNode in="shape" />
<feMergeNode in="color1" />
</feMerge>
</filter>
<filter id="filter2_n_442_6" x="0.00012207" y="94.8833" width="497.969" height="401.656" filterUnits="userSpaceOnUse" color-interpolation-filters="sRGB">
<feFlood flood-opacity="0" result="BackgroundImageFix"/>
<feBlend mode="normal" in="SourceGraphic" in2="BackgroundImageFix" result="shape"/>
<feTurbulence type="fractalNoise" baseFrequency="2 2" stitchTiles="stitch" numOctaves="3" result="noise" seed="5171" />
<feColorMatrix in="noise" type="luminanceToAlpha" result="alphaNoise" />
<feComponentTransfer in="alphaNoise" result="coloredNoise1">
<feFuncA type="discrete" tableValues="0 0 0 0 0 0 0 0 0 0 0 0 1 1 1 1 1 1 1 1 1 1 1 1 1 1 1 1 1 1 1 1 1 1 1 1 1 0 0 0 0 0 0 0 0 0 0 0 0 0 0 0 0 0 0 0 0 0 0 0 0 0 0 0 0 0 0 0 0 0 0 0 0 0 0 0 0 0 0 0 0 0 0 0 0 0 0 0 0 0 0 0 0 0 0 0 0 0 0 0 "/>
</feComponentTransfer>
<feComposite operator="in" in2="shape" in="coloredNoise1" result="noise1Clipped" />
<feFlood flood-color="rgba(255, 255, 255, 0.16)" result="color1Flood" />
<feComposite operator="in" in2="noise1Clipped" in="color1Flood" result="color1" />
<feMerge result="effect1_noise_442_6">
<feMergeNode in="shape" />
<feMergeNode in="color1" />
</feMerge>
</filter>
<filter id="filter3_n_442_6" x="0" y="0" width="497.969" height="401.656" filterUnits="userSpaceOnUse" color-interpolation-filters="sRGB">
<feFlood flood-opacity="0" result="BackgroundImageFix"/>
<feBlend mode="normal" in="SourceGraphic" in2="BackgroundImageFix" result="shape"/>
<feTurbulence type="fractalNoise" baseFrequency="2 2" stitchTiles="stitch" numOctaves="3" result="noise" seed="5171" />
<feColorMatrix in="noise" type="luminanceToAlpha" result="alphaNoise" />
<feComponentTransfer in="alphaNoise" result="coloredNoise1">
<feFuncA type="discrete" tableValues="0 0 0 0 0 0 0 0 0 0 0 0 1 1 1 1 1 1 1 1 1 1 1 1 1 1 1 1 1 1 1 1 1 1 1 1 1 0 0 0 0 0 0 0 0 0 0 0 0 0 0 0 0 0 0 0 0 0 0 0 0 0 0 0 0 0 0 0 0 0 0 0 0 0 0 0 0 0 0 0 0 0 0 0 0 0 0 0 0 0 0 0 0 0 0 0 0 0 0 0 "/>
</feComponentTransfer>
<feComposite operator="in" in2="shape" in="coloredNoise1" result="noise1Clipped" />
<feFlood flood-color="rgba(255, 255, 255, 0.16)" result="color1Flood" />
<feComposite operator="in" in2="noise1Clipped" in="color1Flood" result="color1" />
<feMerge result="effect1_noise_442_6">
<feMergeNode in="shape" />
<feMergeNode in="color1" />
</feMerge>
</filter>
</defs>
</svg>
